<?xml version="1.0" encoding="utf-8"?>
<!-- Generator: Adobe Illustrator 18.1.1, SVG Export Plug-In . SVG Version: 6.00 Build 0)  -->
<svg version="1.1" id="Layer_1" xmlns="http://www.w3.org/2000/svg" xmlns:xlink="http://www.w3.org/1999/xlink" x="0px" y="0px"
	 viewBox="0 0 208.7 203.8" style="enable-background:new 0 0 208.7 203.8;" xml:space="preserve">
<g>
	<g style="opacity:0.25;">
		<path style="fill:none;stroke:#a03024;stroke-width:0.4811;stroke-miterlimit:10;" d="M158.7,68.3C135.8,40,94.6,34.5,65.1,56.4
			c-29.5,21.8-36.3,62.9-15.9,93"/>
		<path style="fill:none;stroke:#a03024;stroke-width:0.4811;stroke-miterlimit:10;" d="M164,146.5c13.4-22.2,13.4-50.9-1.9-73.5"/>
		<path style="fill:none;stroke:#a03024;stroke-width:0.4811;stroke-miterlimit:10;" d="M158.7,68.3c-4.1-5.1-8.8-9.4-13.9-13"/>
		<path style="fill:none;stroke:#a03024;stroke-width:0.4811;stroke-miterlimit:10;" d="M171.1,92c-1.9-6.6-4.9-13-9-19"/>
		<line style="fill:none;stroke:#a03024;stroke-width:0.4811;stroke-miterlimit:10;" x1="160.5" y1="67" x2="156.9" y2="69.6"/>
		<line style="fill:none;stroke:#a03024;stroke-width:0.4811;stroke-miterlimit:10;" x1="163.9" y1="71.6" x2="160.4" y2="74.3"/>
		<path style="opacity:0.65;fill:none;stroke:#a03024;stroke-width:0.4811;stroke-miterlimit:10;" d="M68.2,168.2
			c-5.8-3.8-11-8.5-15.6-14.1"/>
		<circle style="fill:none;stroke:#a03024;stroke-width:0.4811;stroke-miterlimit:10;" cx="66.2" cy="55.5" r="3.4"/>
	</g>
	
		<line style="opacity:0.5;fill:none;stroke:#a03024;stroke-width:0.4422;stroke-miterlimit:10;" x1="54.9" y1="148.3" x2="58.2" y2="145.9"/>
	<g>
		<line style="opacity:0.5;fill:none;stroke:#a03024;stroke-miterlimit:10;" x1="181.2" y1="66.1" x2="177.8" y2="68.1"/>
		<path style="opacity:0.5;fill:none;stroke:#a03024;stroke-miterlimit:10;" d="M181.2,66.1c11.1,18.7,14.5,40.3,10.8,60.6"/>
		<path style="opacity:0.5;fill:none;stroke:#a03024;stroke-miterlimit:10;" d="M134.6,34.2l2.5-5.4c11.5,4.4,22.3,11.3,31.3,20.5
			l12.4-9.2"/>
		<path style="opacity:0.5;fill:none;stroke:#a03024;stroke-miterlimit:10;" d="M159,22.3c10.8,6.7,20.5,15.5,28.5,26.3
			c7.8,10.5,13.3,22.1,16.6,34"/>
		<circle style="opacity:0.5;fill:none;stroke:#a03024;stroke-miterlimit:10;" cx="178.6" cy="54.7" r="3.3"/>
		<circle style="opacity:0.5;fill:none;stroke:#a03024;stroke-miterlimit:10;" cx="142.6" cy="14.7" r="3.3"/>
		<path style="opacity:0.5;fill:none;stroke:#a03024;stroke-miterlimit:10;" d="M160.5,185.2c-40.9,30.3-98.7,21.7-129-19.2
			S9.7,67.2,50.7,36.9C90.2,7.6,145.5,14.6,176.5,52"/>
	</g>
	<g style="opacity:0.5;">
		<g>
			<polygon style="opacity:0.5;fill:none;stroke:#a03024;stroke-width:0.4678;stroke-miterlimit:10;" points="191.1,71.5 
				195.3,72.3 192.9,75.9 			"/>
			<polygon style="opacity:0.5;fill:none;stroke:#a03024;stroke-width:0.4678;stroke-miterlimit:10;" points="160.7,34.6 
				164.8,33.1 164.5,37.4 			"/>
			<polygon style="fill:none;stroke:#a03024;stroke-width:0.4678;stroke-miterlimit:10;" points="166,38.5 170.2,37.3 169.6,41.6 
							"/>
		</g>
	</g>
	<circle style="fill:none;stroke:#FFFFFF;stroke-miterlimit:10;stroke-dasharray:2.2507,1.4035;" cx="104.8" cy="110.9" r="75.5"/>
	<g>
		<circle style="fill:#D54029;stroke:#FFFFFF;stroke-width:0.7017;stroke-miterlimit:10;" cx="172.9" cy="142.3" r="35.5"/>
		<g>
			<defs>
				<circle id="SVGID_1_" cx="172.9" cy="142.3" r="35.5"/>
			</defs>
			<clipPath id="SVGID_2_">
				<use xlink:href="#SVGID_1_"  style="overflow:visible;"/>
			</clipPath>
			<path style="clip-path:url(#SVGID_2_);fill:#FFFFFF;" d="M175.5,151.5h-5.3c-2.1,0-3.9,1.6-3.9,3.7v9.3c0,1.6,1,3,2.4,3.5
				l0.2,0.1v15.2c0,1.3,1.1,2.3,2.4,2.3h3c1.3,0,2.2-1,2.2-2.3v-15.2l0.2-0.1c1.5-0.6,2.4-2,2.4-3.5v-9.3
				C179.2,153.1,177.6,151.5,175.5,151.5z M178.6,164.5c0,1.4-1,2.7-2.4,3c-0.2,0-0.3,0.2-0.3,0.3v15.4c0,0.9-0.7,1.7-1.6,1.7h-3
				c-0.9,0-1.7-0.8-1.7-1.7v-15.4c0-0.2-0.1-0.3-0.3-0.3c-1.4-0.4-2.4-1.6-2.4-3v-9.3c0-1.7,1.5-3.1,3.3-3.1h5.3
				c1.7,0,3.1,1.4,3.1,3.1L178.6,164.5z"/>
			<path style="clip-path:url(#SVGID_2_);fill:#FFFFFF;" d="M172.9,128c-8.2,0-14.8,6.7-14.8,14.8c0,3.2,1,6.2,2.9,8.8
				c0.1,0.2,0.3,0.2,0.5,0.1c0.1-0.1,0.1-0.1,0.1-0.2c0-0.1,0-0.2-0.1-0.3c-1.8-2.4-2.7-5.3-2.7-8.4c0-7.8,6.3-14.1,14.1-14.1
				c7.8,0,14.1,6.3,14.1,14.1c0,2.9-1,5.9-2.7,8.4c-0.1,0.1-0.1,0.2-0.1,0.3c0,0.1,0.1,0.2,0.1,0.2c0.2,0.1,0.4,0.1,0.5-0.1
				c1.8-2.6,2.9-5.7,2.9-8.8C187.7,134.7,181.1,128,172.9,128z"/>
			<path style="clip-path:url(#SVGID_2_);fill:#FFFFFF;" d="M172.9,148.6c3.1,0,5.7-2.5,5.7-5.7c0-3.1-2.5-5.7-5.7-5.7
				c-3.1,0-5.7,2.5-5.7,5.7C167.2,146.1,169.8,148.6,172.9,148.6z M172.9,138c2.7,0,4.9,2.2,4.9,4.9c0,2.7-2.2,4.9-4.9,4.9
				c-2.7,0-4.9-2.2-4.9-4.9C167.9,140.3,170.2,138,172.9,138z"/>
			<path style="clip-path:url(#SVGID_2_);fill:#FFFFFF;" d="M172.9,119.6c-12.8,0-23.2,10.4-23.2,23.2c0,7.8,3.9,15,10.4,19.3
				c0.2,0.1,0.4,0.1,0.5-0.1c0.1-0.2,0.1-0.4-0.1-0.5c-6.3-4.2-10.1-11.2-10.1-18.7c0-12.4,10.1-22.5,22.5-22.5
				c12.4,0,22.5,10.1,22.5,22.5c0,7.6-3.8,14.6-10.1,18.8c-0.1,0.1-0.1,0.1-0.2,0.2c0,0.1,0,0.2,0.1,0.3c0.1,0.2,0.3,0.2,0.5,0.1
				c6.5-4.3,10.4-11.5,10.4-19.3C196.1,130.1,185.7,119.6,172.9,119.6z"/>
		</g>
		<circle style="fill:none;stroke:#FFFFFF;stroke-width:0.25;stroke-miterlimit:10;" cx="172.9" cy="142.3" r="35.5"/>
	</g>
	<g>
		<g>
			<circle style="fill:#D54029;stroke:#FFFFFF;stroke-width:0.7017;stroke-miterlimit:10;" cx="35.9" cy="144.7" r="35.5"/>
			<g>
				<g>
					<defs>
						<circle id="SVGID_3_" cx="35.9" cy="144.7" r="35.5"/>
					</defs>
					<clipPath id="SVGID_4_">
						<use xlink:href="#SVGID_3_"  style="overflow:visible;"/>
					</clipPath>
					<g style="clip-path:url(#SVGID_4_);">
						
							<line style="fill:none;stroke:#FFFFFF;stroke-width:0.7479;stroke-miterlimit:10;" x1="12.7" y1="152.3" x2="65.5" y2="101.7"/>
						<polygon style="fill:#D54029;" points="83.7,108.1 83.7,100.8 63.2,100.8 54.7,108.4 54.7,115.4 77.1,115.4 						"/>
						<g>
							<polygon style="fill:none;stroke:#FFFFFF;stroke-width:0.6633;stroke-miterlimit:10;" points="83.6,107.9 83.6,100.8 
								63.2,100.8 54.7,108.4 54.7,115.4 77.1,115.4 							"/>
							<polyline style="fill:none;stroke:#FFFFFF;stroke-width:0.3316;stroke-miterlimit:10;" points="54.7,108.3 77,108.3 
								83.7,100.7 							"/>
							
								<line style="fill:none;stroke:#FFFFFF;stroke-width:0.6633;stroke-miterlimit:10;" x1="76.9" y1="108.5" x2="76.9" y2="115.4"/>
						</g>
						<ellipse style="fill:none;stroke:#FFFFFF;stroke-width:0.374;stroke-miterlimit:10;" cx="48" cy="157.4" rx="2.2" ry="5.7"/>
						
							<ellipse style="fill:none;stroke:#FFFFFF;stroke-width:0.374;stroke-miterlimit:10;" cx="57.5" cy="146.4" rx="2.1" ry="5.3"/>
						
							<ellipse style="fill:none;stroke:#FFFFFF;stroke-width:0.374;stroke-miterlimit:10;" cx="52.8" cy="151.8" rx="2.1" ry="5.3"/>
						
							<ellipse style="fill:none;stroke:#FFFFFF;stroke-width:0.374;stroke-miterlimit:10;" cx="62.1" cy="141.2" rx="2.1" ry="5.2"/>
						<ellipse style="fill:none;stroke:#FFFFFF;stroke-width:0.374;stroke-miterlimit:10;" cx="66.6" cy="135.9" rx="2" ry="5.1"/>
						<ellipse style="fill:none;stroke:#FFFFFF;stroke-width:0.374;stroke-miterlimit:10;" cx="71.1" cy="130.7" rx="2" ry="5.1"/>
						<ellipse style="fill:none;stroke:#FFFFFF;stroke-width:0.374;stroke-miterlimit:10;" cx="75.5" cy="125.6" rx="2" ry="5.1"/>
						<path style="fill:none;stroke:#FFFFFF;stroke-width:0.7479;stroke-miterlimit:10;" d="M13.6,163.1c-1.2,0-2.2-2.5-2.2-5.7
							c0-2.3,0.6-4.3,1.3-5.2"/>
						
							<line style="fill:none;stroke:#FFFFFF;stroke-width:0.7479;stroke-miterlimit:10;" x1="47.2" y1="152.2" x2="80.2" y2="114.8"/>
						<line style="fill:none;stroke:#FFFFFF;stroke-width:0.7479;stroke-miterlimit:10;" x1="49" y1="162.5" x2="80.5" y2="125"/>
						
							<line style="fill:none;stroke:#FFFFFF;stroke-width:0.6633;stroke-miterlimit:10;" x1="48.1" y1="163.2" x2="13.6" y2="163.2"/>
						
							<line style="fill:none;stroke:#FFFFFF;stroke-width:0.3316;stroke-miterlimit:10;stroke-dasharray:0.3316,0.3316;" x1="45.8" y1="159.7" x2="11.6" y2="159.7"/>
						
							<line style="fill:none;stroke:#FFFFFF;stroke-width:0.3316;stroke-miterlimit:10;stroke-dasharray:0.3316,0.3316;" x1="46.1" y1="154.1" x2="11.9" y2="154.1"/>
						
							<line style="fill:none;stroke:#FFFFFF;stroke-width:0.3316;stroke-miterlimit:10;stroke-dasharray:0.3316,0.3316;" x1="48.7" y1="150.1" x2="14.6" y2="150.1"/>
						
							<line style="fill:none;stroke:#FFFFFF;stroke-width:0.3316;stroke-miterlimit:10;stroke-dasharray:0.3316,0.3316;" x1="52.7" y1="146.4" x2="18.6" y2="146.4"/>
						
							<line style="fill:none;stroke:#FFFFFF;stroke-width:0.3316;stroke-miterlimit:10;stroke-dasharray:0.3316,0.3316;" x1="55.7" y1="142.8" x2="22.5" y2="142.8"/>
						
							<line style="fill:none;stroke:#FFFFFF;stroke-width:0.3316;stroke-miterlimit:10;stroke-dasharray:0.3316,0.3316;" x1="59" y1="138.8" x2="26.2" y2="138.8"/>
						
							<line style="fill:none;stroke:#FFFFFF;stroke-width:0.3316;stroke-miterlimit:10;stroke-dasharray:0.3316,0.3316;" x1="62.3" y1="135.2" x2="30.2" y2="135.2"/>
						
							<line style="fill:none;stroke:#FFFFFF;stroke-width:0.3316;stroke-miterlimit:10;stroke-dasharray:0.3316,0.3316;" x1="65.7" y1="131.5" x2="34.2" y2="131.5"/>
						
							<line style="fill:none;stroke:#FFFFFF;stroke-width:0.3316;stroke-miterlimit:10;stroke-dasharray:0.3316,0.3316;" x1="69" y1="127.5" x2="38.1" y2="127.5"/>
						
							<line style="fill:none;stroke:#FFFFFF;stroke-width:0.3316;stroke-miterlimit:10;stroke-dasharray:0.3316,0.3316;" x1="72.3" y1="123.9" x2="42.1" y2="123.9"/>
						<polygon style="fill:#D54029;" points="71.8,121.6 71.8,113.4 48.5,113.4 38.9,122 38.9,129.9 64.2,129.9 						"/>
						<g>
							<polygon style="fill:none;stroke:#FFFFFF;stroke-width:0.6633;stroke-miterlimit:10;" points="71.6,121.4 71.6,113.4 
								48.5,113.4 38.8,122 38.8,130 64.2,130 							"/>
							<g>
								<g>
									<path style="fill:#FFFFFF;" d="M54.8,118c0,0-0.1,0-0.1,0c0,0,0-0.1,0.2-0.2c0.2-0.1,0.4-0.1,0.6-0.1
										c0.2,0,0.3,0.1,0.4,0.1c0,0,0,0.1-0.2,0.2c-0.1,0-0.2,0-0.3,0c0-0.1-0.2-0.1-0.4,0C54.9,118,54.8,118,54.8,118z"/>
								</g>
								<g>
									<path style="fill:#FFFFFF;" d="M54.6,117.7c0,0-0.1,0-0.1,0c0,0,0-0.1,0.2-0.2c0.4-0.2,0.9-0.2,1.2-0.2
										c0.4,0,0.6,0.1,0.7,0.3c0,0,0,0.1-0.2,0.2s-0.2,0-0.3,0c-0.1-0.1-0.3-0.2-0.5-0.2c-0.3,0-0.6,0-0.9,0.2
										C54.7,117.7,54.6,117.7,54.6,117.7z"/>
								</g>
								<g>
									<path style="fill:#FFFFFF;" d="M54.4,117.3c-0.1,0-0.1,0-0.1,0c0,0,0-0.1,0.2-0.2c0.6-0.2,1.3-0.4,1.9-0.3
										c0.6,0,1,0.2,1.1,0.4c0,0,0,0.1-0.2,0.2c-0.1,0-0.2,0-0.3,0c-0.1-0.2-0.5-0.3-0.9-0.3c-0.5,0-1,0.1-1.5,0.3
										C54.5,117.3,54.4,117.3,54.4,117.3z"/>
								</g>
							</g>
							<polyline style="fill:none;stroke:#FFFFFF;stroke-width:0.3316;stroke-miterlimit:10;" points="38.8,121.9 64.2,121.9 
								71.7,113.3 							"/>
							
								<line style="fill:none;stroke:#FFFFFF;stroke-width:0.3316;stroke-miterlimit:10;" x1="64.2" y1="122.1" x2="64.2" y2="130"/>
						</g>
						<polygon style="fill:#D54029;" points="56.9,138.2 56.9,128.9 30.4,128.9 19.5,138.7 19.5,147.6 48.3,147.6 						"/>
						<g>
							<polygon style="fill:none;stroke:#FFFFFF;stroke-width:0.6633;stroke-miterlimit:10;" points="57,138 57,129 30.4,129 
								19.6,138.7 19.6,147.6 48.4,147.6 							"/>
							<polyline style="fill:none;stroke:#FFFFFF;stroke-width:0.3316;stroke-miterlimit:10;" points="19.6,138.8 48.3,138.8 
								57,129 							"/>
							
								<line style="fill:none;stroke:#FFFFFF;stroke-width:0.3316;stroke-miterlimit:10;" x1="48.2" y1="138.6" x2="48.2" y2="147.6"/>
						</g>
					</g>
					
						<line style="clip-path:url(#SVGID_4_);fill:none;stroke:#FFFFFF;stroke-width:0.6633;stroke-miterlimit:10;" x1="21.2" y1="162.9" x2="21.2" y2="181.8"/>
					
						<line style="clip-path:url(#SVGID_4_);fill:none;stroke:#FFFFFF;stroke-width:0.6633;stroke-miterlimit:10;" x1="51.4" y1="159.5" x2="51.4" y2="178.8"/>
					<polyline style="clip-path:url(#SVGID_4_);fill:none;stroke:#FFFFFF;stroke-width:0.3316;stroke-miterlimit:10;" points="
						73.5,132.7 73.5,152.1 57.7,152.1 					"/>
					<path style="clip-path:url(#SVGID_4_);fill:none;stroke:#FFFFFF;stroke-width:0.7479;stroke-miterlimit:10;" d="M49,162.5
						c-0.3,0.4-0.6,0.6-1,0.6c-1.2,0-2.2-2.5-2.2-5.7c0-2.6,0.7-4.8,1.7-5.5"/>
				</g>
				<g>
					<g>
						<path style="fill:#FFFFFF;" d="M36.7,134.6c-0.1,0-0.2,0-0.2-0.1c-0.1-0.1,0.1-0.2,0.3-0.3c0.4-0.1,0.8-0.2,1.2-0.2
							c0.3,0,0.6,0.1,0.7,0.3c0.1,0.1-0.1,0.2-0.3,0.3c-0.2,0.1-0.5,0.1-0.5,0c-0.1-0.1-0.4-0.1-0.8,0
							C36.9,134.6,36.8,134.6,36.7,134.6z"/>
					</g>
					<g>
						<path style="fill:#FFFFFF;" d="M36.3,134c-0.1,0-0.2,0-0.2-0.1c-0.1-0.1,0.1-0.2,0.3-0.3c0.8-0.3,1.7-0.4,2.4-0.4
							c0.7,0,1.2,0.2,1.4,0.5c0.1,0.1-0.1,0.2-0.3,0.3c-0.2,0.1-0.5,0.1-0.5,0c-0.1-0.2-0.5-0.4-1-0.4c-0.5,0-1.1,0.1-1.7,0.3
							C36.5,134,36.4,134,36.3,134z"/>
					</g>
					<g>
						<path style="fill:#FFFFFF;" d="M35.8,133.3c-0.1,0-0.2,0-0.2-0.1c-0.1-0.1,0.1-0.2,0.3-0.3c1.3-0.5,2.6-0.7,3.7-0.7
							c1.1,0,1.9,0.3,2.2,0.8c0.1,0.1-0.1,0.2-0.3,0.3s-0.5,0.1-0.5,0c-0.3-0.4-0.9-0.7-1.8-0.7c-0.9,0-2,0.2-3,0.5
							C36.1,133.3,35.9,133.3,35.8,133.3z"/>
					</g>
				</g>
			</g>
		</g>
		<circle style="fill:none;stroke:#FFFFFF;stroke-width:0.25;stroke-miterlimit:10;" cx="35.8" cy="144.8" r="35.5"/>
	</g>
	<g>
		<circle style="fill:#D54029;stroke:#FFFFFF;stroke-width:0.7017;stroke-miterlimit:10;" cx="104.8" cy="35.9" r="35.5"/>
		<g>
			<g>
				<defs>
					<circle id="SVGID_5_" cx="104.8" cy="35.9" r="35.5"/>
				</defs>
				<clipPath id="SVGID_6_">
					<use xlink:href="#SVGID_5_"  style="overflow:visible;"/>
				</clipPath>
				<path style="clip-path:url(#SVGID_6_);fill:#FFFFFF;" d="M88.9,69.2v-5.5l9,4.5v5.4l1,0.7V48.1c0-0.1,0-0.4-0.2-0.5l-9.9-4.4
					c-0.2-0.1-0.4-0.1-0.5,0c-0.2,0.1-0.3,0.3-0.3,0.4v25L83,66l-0.6-34.5l22.8,10.1v0.2l0,36.2l-5.2-2.8l5.5,4.1l0,0
					c0,0,0.1,0,0.1,0l0,0c0.1,0,0.1,0,0.2,0c0.1,0,0.1,0,0.1,0l0,0l22-14.9c0.2-0.1,0.3-0.3,0.3-0.4L129,43c0,0,0,0,0-0.1
					c0,0,0,0,0-0.1l0,0c0-0.1,0-0.1-0.1-0.2c0,0,0-0.1-0.1-0.1c0,0-0.1,0-0.1-0.1c0,0-0.1,0-0.1,0l0,0L118.1,39l-2.6-2.6
					c0,0-0.1-0.1-0.1-0.1l-0.1,0l-6.1-2.5l0.2-8.7c0-0.2-0.1-0.4-0.3-0.5l-3-1.1c-0.1,0-0.2,0-0.3,0l-3,1.1
					c-0.2,0.1-0.3,0.3-0.3,0.5l0.1,6l-10.5-4.4c-0.2-0.1-0.3,0-0.5,0c-0.1,0.1-0.2,0.3-0.2,0.4l0,7.3l-9.4-4.1c0,0-0.1,0-0.1,0l0,0
					c0,0,0,0-0.1,0c0,0,0,0-0.1,0c0,0-0.1,0-0.1,0l0,0c0,0-0.1,0-0.1,0c0,0,0,0,0,0c0,0,0,0-0.1,0.1l0,0c0,0,0,0,0,0.1l0,0.1
					c0,0,0,0,0,0.1l-0.1,0c0,0-0.1,0.1-0.1,0.1v0l0.1,0L82,66.3c0,0.2,0.1,0.3,0.3,0.4l5.9,3.2l2.4,0.2L88.9,69.2z M88.9,44.5l9,4
					v4.3l-9-4V44.5z M88.9,49.2l9,4v4.3l-9-4.1V49.2z M88.9,53.9l9,4.1v4.5l-9-4.3V53.9z M88.9,58.7l9,4.3v4.7l-9-4.6V58.7z
					 M127.1,43.1l-3.3,1.6l-4.1-4.1L127.1,43.1z M115.1,49.8c0,0,0,0,0.1,0c0.2-0.1,0.2-0.2,0.2-0.5V38l7.8,7.7
					c0.1,0.1,0.4,0.2,0.6,0.1l4-1.9l-0.5,19.8L106.3,78l0-35.7l8.4,7.3C114.9,49.7,115,49.8,115.1,49.8z M105.9,24.4l2,0.7l-2,0.8
					l-2-0.8L105.9,24.4z M108.2,25.4l-0.2,7.9l-2.1-0.8v-6.1L108.2,25.4z M105.5,26.4v5.9l-2-0.9l-0.1-6L105.5,26.4z M102.8,32.2
					L102.8,32.2c0.1,0.1,0.1,0.1,0.1,0.1l0.1,0l11.4,4.8v11.1l-8.4-7.3c0,0,0,0,0,0l-0.1-0.1l-13.5-5.9l0-7L102.8,32.2z"/>
				<use xlink:href="#SVGID_5_"  style="overflow:visible;fill:none;stroke:#FFFFFF;stroke-width:0.25;stroke-miterlimit:10;"/>
			</g>
			<path style="fill:#FFFFFF;" d="M104.6,12.4L104.6,12.4l-0.1-0.2c-0.6-3.5-3.7-6-7.3-6c-2.5,0-4.8,1.2-6.2,3.3L91,9.7l-0.1,0
				c-0.2,0-0.4,0-0.5,0c-3.2,0-5.7,2.6-5.7,5.7c0,3.2,2.6,5.7,5.7,5.7c1.1,0,2.2-0.3,3.1-0.9l0.1-0.1l0.1,0.1c1.8,1,4.1,1.2,6.1,0.5
				l0.1,0l0.1,0c0.6,0.3,1.3,0.4,2,0.4c2.6,0,4.7-2.1,4.7-4.7C106.7,14.8,105.9,13.3,104.6,12.4z M102,20.3c-0.7,0-1.3-0.2-1.9-0.5
				l-0.2-0.1l-0.2,0.1c-0.8,0.3-1.6,0.5-2.5,0.5c-1.2,0-2.5-0.3-3.5-1l-0.2-0.1l-0.2,0.2c-0.9,0.7-1.9,1-3,1c-2.7,0-5-2.2-5-5
				s2.2-5,5-5c0.2,0,0.5,0,0.8,0.1l0.2,0l0.1-0.2c1.2-2,3.4-3.3,5.7-3.3c3.3,0,6.1,2.4,6.6,5.7l0,0.2l0.2,0.1c1.2,0.7,1.9,2,1.9,3.4
				C105.9,18.5,104.1,20.3,102,20.3z"/>
		</g>
	</g>
</g>
</svg>
